<svg xmlns="http://www.w3.org/2000/svg" width="55.001" height="55" viewBox="0 0 55.001 55"><defs><style>.a{fill:#209BEE;}</style></defs><g transform="translate(-0.001 -0.121)"><path class="a" d="M130.744,138.99a.918.918,0,0,0,.786,1.66,11.906,11.906,0,0,1,3.6-1.058.918.918,0,1,0-.232-1.821,13.78,13.78,0,0,0-4.15,1.219Zm0,0" transform="translate(-116.208 -122.834)"/><path class="a" d="M60.229,373.679a.935.935,0,0,0,.293-.046.918.918,0,0,0,.577-1.163,9.048,9.048,0,0,1-.466-2.922v-2.341a.918.918,0,0,0-1.836,0v2.4a10.8,10.8,0,0,0,.562,3.451A.918.918,0,0,0,60.229,373.679Zm0,0" transform="translate(-52.47 -326.774)"/><path class="a" d="M63.55,168.263a11.961,11.961,0,0,1,1.582-1.567.918.918,0,1,0-1.166-1.419,14.325,14.325,0,0,0-4.4,6.368,13.993,13.993,0,0,0-.771,4.6v7.721a.918.918,0,0,0,1.836,0v-7.721A12.4,12.4,0,0,1,63.55,168.263Zm0,0" transform="translate(-52.471 -147.201)"/><path class="a" d="M212.371,151.35a.89.89,0,0,0,.134-.01.918.918,0,0,0,.776-1.041,14.447,14.447,0,0,0-12.043-12.269.918.918,0,0,0-.26,1.818,12.6,12.6,0,0,1,10.487,10.718.918.918,0,0,0,.906.785Zm0,0" transform="translate(-178.652 -123.063)"/><path class="a" d="M140.819,211.6a6.917,6.917,0,0,0-6.875-6.675,6.344,6.344,0,0,0-1.186.105,6.849,6.849,0,0,0-4.1,2.378,6.622,6.622,0,0,0-1.574,3.9,3.23,3.23,0,0,0-.029.5v4.324c0,1.718,0,3.794.009,5.986a10.828,10.828,0,0,0,3.971,8.4l.989.809c6.505,5.336,6.518,5.346,6.594,5.395a.906.906,0,0,0,.5.153.918.918,0,0,0,.562-1.652c-.175-.137-3.246-2.654-6.5-5.319l-.992-.806a9.027,9.027,0,0,1-3.3-7.043c-.006-2.136-.006-4.21-.006-5.926v-4.324a1.874,1.874,0,0,1,.018-.307,4.9,4.9,0,0,1,1.158-2.917,5.034,5.034,0,0,1,3.02-1.75,4.508,4.508,0,0,1,.854-.075,5.067,5.067,0,0,1,5.04,4.911.6.6,0,0,0,.009.138v4.682a10.8,10.8,0,0,0,1.455,5.417.918.918,0,1,0,1.588-.918,9.029,9.029,0,0,1-1.207-4.563v-4.618A1.757,1.757,0,0,0,140.819,211.6Zm0,0" transform="translate(-113.388 -182.767)"/><path class="a" d="M171.642,264.415a.918.918,0,0,0,.8-1.634c-.083-.064-.29-.234-.6-.488l-.822-.666a1.019,1.019,0,0,0-.083-.076c-1.129-.918-2.771-2.258-4.59-3.743a9.018,9.018,0,0,1-3.305-6.993V249.6c-.009-1.83-.009-3.488-.009-4.774v-2.58a1.367,1.367,0,0,1,.4-.976,1.383,1.383,0,0,1,.889-.4,1.3,1.3,0,0,1,.966.374,1.594,1.594,0,0,1,.5,1.152v1.46c0,1.146,0,2.816-.009,4.755v.106a10.878,10.878,0,0,0,3.948,8.34c.378.314.748.619,1.091.9a.918.918,0,1,0,1.157-1.427c-.337-.275-.7-.574-1.077-.884a9.046,9.046,0,0,1-3.284-6.931V248.6c.009-1.928.009-3.6.009-4.751v-1.46a3.437,3.437,0,0,0-1.073-2.486,3.131,3.131,0,0,0-2.335-.872,3.225,3.225,0,0,0-2.079.938,3.191,3.191,0,0,0-.938,2.274v2.58c0,1.285,0,2.949.009,4.774v1.212a10.846,10.846,0,0,0,3.982,8.413c1.773,1.452,3.382,2.764,4.508,3.679a1,1,0,0,0,.085.078l.9.735c.786.639.786.639.96.7Zm0,0" transform="translate(-143.852 -213.207)"/><path class="a" d="M63.044,5.005a.916.916,0,0,0,.416-.1A27.092,27.092,0,0,1,81.518,2.579a.918.918,0,1,0,.4-1.794A28.934,28.934,0,0,0,62.626,3.269a.918.918,0,0,0,.418,1.736Zm0,0" transform="translate(-55.44 0)"/><path class="a" d="M268.979,17.264a26.3,26.3,0,0,1,3.353,1.481.918.918,0,0,0,.859-1.623,28.159,28.159,0,0,0-3.588-1.585.918.918,0,0,0-.624,1.727Zm0,0" transform="translate(-239.499 -13.708)"/><path class="a" d="M20.2,43.606a.919.919,0,0,0,.664-.285,23.328,23.328,0,0,1,22.951-6.432.918.918,0,1,0,.485-1.77,25.154,25.154,0,0,0-24.763,6.934.918.918,0,0,0,.664,1.552Zm0,0" transform="translate(-17.209 -30.457)"/><path class="a" d="M274.461,53.29a.96.96,0,0,0-.191-.042.911.911,0,0,0-.167-.033H274.1a.807.807,0,0,0-.129.027.542.542,0,0,0-.367.14.871.871,0,0,0-.142.092,22.894,22.894,0,0,0-.2.282v.007a1.04,1.04,0,0,0-.038.174.918.918,0,0,0-.037.184v.007a.776.776,0,0,0,.024.116.922.922,0,0,0,.046.228.891.891,0,0,0,.092.15.921.921,0,0,0,.1.144.907.907,0,0,0,.184.133.751.751,0,0,0,.1.069,23.75,23.75,0,0,1,9.121,7.123.918.918,0,0,0,1.449-1.127,25.568,25.568,0,0,0-9.823-7.667Zm0,0" transform="translate(-243.789 -47.382)"/><path class="a" d="M71.352,81.308a19.4,19.4,0,0,1,5.856-2.929.918.918,0,1,0-.535-1.756,21.237,21.237,0,0,0-6.408,3.2.918.918,0,0,0,1.087,1.48Zm0,0" transform="translate(-62.371 -68.233)"/><path class="a" d="M.635,138.766a.918.918,0,0,0,1.157-.589A19.411,19.411,0,0,1,6.15,130.82a.918.918,0,1,0-1.338-1.258A21.238,21.238,0,0,0,.046,137.61a.918.918,0,0,0,.588,1.156Zm0,0" transform="translate(0 -115.253)"/><path class="a" d="M184.858,88.583a.9.9,0,0,0,.1-.005.918.918,0,0,0,.812-1.01,21.512,21.512,0,0,0-21.431-19.182,22.139,22.139,0,0,0-2.395.134.918.918,0,1,0,.2,1.825,20.162,20.162,0,0,1,2.195-.123,19.678,19.678,0,0,1,19.606,17.544.918.918,0,0,0,.911.817Zm0,0" transform="translate(-143.784 -60.921)"/><path class="a" d="M305.2,166.182h.08a.917.917,0,0,0,.836-.993A18.134,18.134,0,0,0,301.6,154.7a.918.918,0,0,0-1.368,1.225,16.282,16.282,0,0,1,4.057,9.417.918.918,0,0,0,.914.837Zm0,0" transform="translate(-267.726 -137.684)"/><path class="a" d="M27.943,113.821A16.011,16.011,0,0,1,43,104.392a.933.933,0,0,0,.943-.893.918.918,0,0,0-.893-.942,17.848,17.848,0,0,0-16.777,10.5,17.651,17.651,0,0,0-1.589,6.459c-.01.3-.019.616-.019.929,0,2.054,0,3.154.011,3.269a.911.911,0,0,0,.918.856h.045a.923.923,0,0,0,.874-.955c-.012-.242-.012-3.019-.012-3.171,0-.293.009-.586.018-.849a15.8,15.8,0,0,1,1.425-5.778Zm0,0" transform="translate(-22.01 -91.409)"/><path class="a" d="M223.316,109.314a15.5,15.5,0,0,1,4.889,2.272.919.919,0,1,0,1.05-1.507,17.347,17.347,0,0,0-5.482-2.542l-.339-.083a.918.918,0,0,0-.444,1.781Zm0,0" transform="translate(-198.397 -95.766)"/><path class="a" d="M112.3,185.621a.918.918,0,0,0,1.82-.248,8.18,8.18,0,0,1-.076-1.134V181.6a10.565,10.565,0,0,0-19.646-5.62,10.258,10.258,0,0,0-1.377,4.009,9.994,9.994,0,0,0-.092,1.363v12.045a10.834,10.834,0,0,0,3.97,8.4l1.844,1.516c1.807,1.484,3.5,2.874,4.774,3.912a.918.918,0,1,0,1.161-1.423c-1.271-1.037-2.96-2.426-4.764-3.908l-1.844-1.515a9.026,9.026,0,0,1-3.3-7.029v-12a8.327,8.327,0,0,1,.075-1.125,8.436,8.436,0,0,1,1.137-3.305,8.722,8.722,0,0,1,16.231,4.679v2.69a9.861,9.861,0,0,0,.092,1.336Zm0,0" transform="translate(-82.931 -152.308)"/><path class="a" d="M301.29,289.315a11.935,11.935,0,1,0,11.954,11.934,11.934,11.934,0,0,0-11.954-11.934Zm0,22.033a10.1,10.1,0,1,1,10.118-10.1A10.1,10.1,0,0,1,301.29,311.348Zm0,0" transform="translate(-258.242 -258.082)"/><path class="a" d="M345.078,358.116l-8.531,8.531-3.023-3.023a.918.918,0,0,0-1.3,1.3l3.023,3.023a1.837,1.837,0,0,0,2.6,0l8.531-8.531a.918.918,0,0,0-1.3-1.3Zm0,0" transform="translate(-296.253 -319.251)"/></g></svg>